<svg width="150" height="150" viewBox="0 0 150 150" fill="none" xmlns="http://www.w3.org/2000/svg">
<g clip-path="url(#clip0_15_167)">
<path d="M37.1077 103.652C37.1077 108.573 35.1529 113.292 31.6734 116.771C28.1939 120.251 23.4746 122.206 18.5538 122.206H0V85.0981H18.5538C23.4746 85.0981 28.1939 87.0529 31.6734 90.5324C35.1529 94.0119 37.1077 98.7311 37.1077 103.652ZM18.5538 94.375H9.27692V112.929H18.5538C21.0142 112.929 23.3739 111.951 25.1136 110.212C26.8534 108.472 27.8308 106.112 27.8308 103.652C27.8308 101.192 26.8534 98.8319 25.1136 97.0922C23.3739 95.3524 21.0142 94.375 18.5538 94.375Z" fill="#01010F"/>
<path d="M78.4677 103.652C78.4677 107.322 77.3796 110.909 75.3408 113.96C73.3021 117.011 70.4044 119.389 67.0141 120.793C63.6238 122.198 59.8933 122.565 56.2942 121.849C52.6951 121.133 49.3891 119.366 46.7943 116.771C44.1995 114.177 42.4324 110.871 41.7165 107.272C41.0006 103.673 41.3681 99.942 42.7724 96.5517C44.1767 93.1614 46.5548 90.2637 49.6059 88.225C52.6571 86.1863 56.2443 85.0981 59.9139 85.0981C64.834 85.1002 69.552 87.0557 73.031 90.5348C76.5101 94.0138 78.4656 98.7318 78.4677 103.652ZM59.9139 94.375C58.0791 94.375 56.2855 94.9191 54.7599 95.9385C53.2343 96.9578 52.0453 98.4067 51.3431 100.102C50.641 101.797 50.4573 103.662 50.8152 105.462C51.1732 107.261 52.0567 108.914 53.3541 110.212C54.6515 111.509 56.3045 112.393 58.104 112.751C59.9036 113.109 61.7689 112.925 63.464 112.223C65.1591 111.521 66.608 110.331 67.6273 108.806C68.6467 107.28 69.1908 105.487 69.1908 103.652C69.1886 101.192 68.2106 98.8338 66.4713 97.0945C64.732 95.3552 62.3736 94.3772 59.9139 94.375Z" fill="#01010F"/>
<path d="M78.4677 103.652C78.4677 107.322 77.3796 110.909 75.3408 113.96C73.3021 117.011 70.4044 119.389 67.0141 120.793C63.6238 122.198 59.8933 122.565 56.2942 121.849C52.6951 121.133 49.3891 119.366 46.7943 116.771C44.1995 114.177 42.4324 110.871 41.7165 107.272C41.0006 103.673 41.3681 99.942 42.7724 96.5517C44.1767 93.1614 46.5548 90.2637 49.6059 88.225C52.6571 86.1863 56.2443 85.0981 59.9139 85.0981C64.834 85.1002 69.552 87.0557 73.031 90.5348C76.5101 94.0138 78.4656 98.7318 78.4677 103.652ZM59.9139 94.375C58.0791 94.375 56.2855 94.9191 54.7599 95.9385C53.2343 96.9578 52.0453 98.4067 51.3431 100.102C50.641 101.797 50.4573 103.662 50.8152 105.462C51.1732 107.261 52.0567 108.914 53.3541 110.212C54.6515 111.509 56.3045 112.393 58.104 112.751C59.9036 113.109 61.7689 112.925 63.464 112.223C65.1591 111.521 66.608 110.331 67.6273 108.806C68.6467 107.28 69.1908 105.487 69.1908 103.652C69.1886 101.192 68.2106 98.8338 66.4713 97.0945C64.732 95.3552 62.3736 94.3772 59.9139 94.375Z" fill="#01010F"/>
<path d="M150 103.262C150.002 106.933 148.914 110.523 146.876 113.576C144.837 116.63 141.939 119.01 138.547 120.416C135.155 121.823 131.423 122.191 127.822 121.476C124.221 120.761 120.912 118.994 118.316 116.398C115.719 113.802 113.95 110.495 113.233 106.894C112.517 103.293 112.884 99.5606 114.288 96.1683C115.693 92.7761 118.072 89.8766 121.125 87.8367C124.177 85.7967 127.767 84.7078 131.438 84.7078C136.359 84.71 141.078 86.6652 144.558 90.144C148.038 93.6228 149.996 98.3408 150 103.262ZM131.438 93.9848C129.601 93.9848 127.806 94.5295 126.279 95.5501C124.752 96.5707 123.562 98.0214 122.859 99.7185C122.157 101.416 121.973 103.283 122.332 105.084C122.691 106.886 123.576 108.54 124.875 109.838C126.175 111.136 127.83 112.02 129.632 112.377C131.433 112.735 133.301 112.55 134.997 111.846C136.693 111.142 138.143 109.95 139.162 108.422C140.182 106.894 140.725 105.098 140.723 103.262C140.721 100.801 139.742 98.4409 138.001 96.7014C136.26 94.9619 133.899 93.9848 131.438 93.9848Z" fill="#01010F"/>
<path d="M105.925 103.652C105.925 100.086 106.729 96.5658 108.277 93.3535C109.826 90.1412 112.078 87.3194 114.868 85.0981H77.0531C80.1382 87.5595 82.5656 90.7467 84.1185 94.375H96.7045V110.547C96.7045 111.178 96.4536 111.784 96.0068 112.231C95.56 112.678 94.9541 112.929 94.3223 112.929H84.1185C82.5656 116.557 80.1382 119.744 77.0531 122.206H95.1272C95.485 122.206 95.8346 122.206 96.1842 122.157L96.5419 122.1C96.7696 122.1 96.9972 122.068 97.2249 122.003L97.6395 121.897C97.8347 121.853 98.0298 121.805 98.2249 121.75C98.3713 121.75 98.5176 121.653 98.664 121.604C98.8103 121.555 99.0055 121.482 99.1762 121.409C99.347 121.336 99.477 121.279 99.6234 121.214L100.087 120.994C100.241 120.913 100.396 120.832 100.542 120.742L100.941 120.498L101.396 120.189C101.51 120.108 101.632 120.019 101.737 119.929C101.896 119.816 102.048 119.694 102.193 119.563L102.477 119.311C102.632 119.165 102.786 119.019 102.924 118.864C102.999 118.792 103.07 118.716 103.136 118.636C103.29 118.466 103.445 118.287 103.591 118.108L103.713 117.945C104.876 116.435 105.614 114.641 105.851 112.75C105.913 112.305 105.945 111.857 105.949 111.408V104.676C105.965 104.335 105.925 104.002 105.925 103.652Z" fill="#01010F"/>
<path d="M96.054 36.8272C94.1526 34.0625 91.612 31.7977 88.6479 30.2251C85.6839 28.6524 82.384 27.8185 79.0287 27.7942H77.4026C73.9228 27.7982 70.4923 28.6174 67.3861 30.186C64.2799 31.7547 61.5843 34.0291 59.5155 36.8272H96.054Z" fill="#01010F"/>
<path d="M99.2819 54.6737C99.9106 51.6106 99.9106 48.4517 99.2819 45.3886H50.2386V54.6737H99.2819Z" fill="#01010F"/>
<path d="M50.2386 63.2351V72.2681H79.0287C82.3927 72.2537 85.7031 71.4244 88.6766 69.8513C91.6501 68.2782 94.1982 66.008 96.1028 63.2351H50.2386Z" fill="#01010F"/>
</g>
<defs>
<clipPath id="clip0_15_167">
<rect width="150" height="150" fill="white"/>
</clipPath>
</defs>
</svg>
