<svg width="150" height="150" viewBox="0 0 150 150" fill="none" xmlns="http://www.w3.org/2000/svg">
<path d="M14.89 134.427H135.11V15.573H14.89V134.427ZM91.992 24.6843C113.222 31.5992 128.61 51.4489 128.692 75.0408C128.774 98.2258 113.716 118.076 91.992 125.397V24.6843ZM74.959 21.9997C78.8265 21.9997 82.8585 22.4878 86.3143 23.1386C86.3143 50.0658 59.9828 72.1935 32.7461 72.1935H21.3906C23.2831 44.6154 46.4056 21.9997 74.959 21.9997ZM32.8284 77.8068C59.9828 77.8068 86.3143 99.9342 86.3143 126.861C82.9407 127.512 78.5794 128.082 74.959 128.082C46.3234 128.082 22.4603 105.304 21.3906 77.8068H32.8284Z" fill="#01010F"/>
</svg>
