<svg width="150" height="150" viewBox="0 0 150 150" fill="none" xmlns="http://www.w3.org/2000/svg">
<path d="M131.251 64.7774C131.251 47.9348 117.598 34.2799 100.754 34.2799C89.9425 34.2799 80.4447 39.9068 75.0281 48.3915C74.9792 48.3154 74.932 48.2375 74.8831 48.1614C74.8668 48.1849 74.8523 48.2103 74.836 48.2357C73.6798 46.447 72.3334 44.7943 70.8383 43.2902C70.8419 43.2847 70.8455 43.2811 70.8492 43.2757C70.7277 43.1525 70.5991 43.0383 70.4759 42.9169C70.4342 42.877 70.3907 42.8353 70.349 42.7954C69.9866 42.4457 69.6151 42.1068 69.2345 41.7752C69.1783 41.7263 69.124 41.6773 69.0678 41.6302C68.6727 41.2913 68.2686 40.9615 67.8554 40.6426C67.8264 40.619 67.7974 40.5954 67.7684 40.5737C66.8551 39.8724 65.9037 39.2218 64.9124 38.6256C64.9215 38.6129 64.9305 38.602 64.9378 38.5893C60.3674 35.8565 55.0269 34.2799 49.3148 34.2799C49.3003 34.2799 49.284 34.2799 49.2695 34.2799C49.255 34.2799 49.2387 34.2799 49.2242 34.2799C48.7041 34.2799 48.1858 34.2926 47.6712 34.3198C47.4936 34.3289 47.3196 34.347 47.1438 34.3597C46.8086 34.3814 46.4715 34.4032 46.1381 34.4358C45.9278 34.4575 45.7212 34.4883 45.511 34.5137C45.2156 34.55 44.9203 34.5826 44.6267 34.6261C44.4002 34.6605 44.1773 34.704 43.9544 34.7439C43.6825 34.791 43.4107 34.8345 43.1425 34.8888C42.9069 34.936 42.6749 34.9939 42.4394 35.0483C42.1875 35.1063 41.9338 35.1589 41.6837 35.2223C41.4408 35.2839 41.2016 35.3546 40.9606 35.4234C40.725 35.4905 40.4876 35.5521 40.2539 35.6246C40.0056 35.7007 39.7627 35.7859 39.5163 35.8692C39.2952 35.9435 39.0723 36.0142 38.853 36.0939C38.6011 36.1846 38.3529 36.286 38.1028 36.3839C37.8962 36.4654 37.6896 36.5416 37.4848 36.6267C37.2293 36.7337 36.9774 36.8496 36.7255 36.962C36.5334 37.049 36.3413 37.1323 36.151 37.2211C35.8919 37.3444 35.6382 37.4748 35.3827 37.6053C35.2069 37.6959 35.0275 37.7829 34.8535 37.8771C34.5925 38.0167 34.3352 38.1653 34.0779 38.3121C33.9166 38.4045 33.7535 38.4951 33.594 38.5912C33.3313 38.7488 33.0721 38.9137 32.8148 39.0786C32.668 39.1729 32.5194 39.2653 32.3726 39.3613C32.108 39.5371 31.8507 39.7183 31.5934 39.9014C31.4611 39.9956 31.3252 40.088 31.1947 40.1859C30.9301 40.3798 30.6728 40.5809 30.4136 40.7821C30.2958 40.8745 30.1744 40.9669 30.0584 41.0612C29.7939 41.275 29.5365 41.4943 29.281 41.7154C29.1759 41.806 29.0708 41.8948 28.9675 41.9872C28.7065 42.221 28.4492 42.4584 28.1973 42.7012C28.1049 42.7882 28.0125 42.8752 27.9219 42.9622C27.6627 43.2141 27.4108 43.4732 27.1607 43.7342C27.081 43.8175 27.0013 43.8991 26.9233 43.9842C26.6696 44.2561 26.4214 44.5352 26.1767 44.816C26.1097 44.894 26.0408 44.9719 25.9737 45.0498C25.7255 45.3434 25.4826 45.6406 25.2452 45.9432C25.1891 46.0157 25.1311 46.0864 25.0749 46.1589C24.8339 46.4724 24.5983 46.7895 24.3699 47.1121C24.3228 47.1773 24.2757 47.2444 24.2286 47.3096C23.9948 47.6431 23.7701 47.9801 23.549 48.3226C23.511 48.3806 23.4729 48.4386 23.4367 48.4984C23.2138 48.8518 22.9981 49.2088 22.7897 49.5713C22.7607 49.622 22.7299 49.6745 22.7009 49.7271C22.4889 50.0986 22.2859 50.4755 22.0902 50.8561C22.0666 50.9014 22.0431 50.9467 22.0213 50.992C21.8238 51.3816 21.6335 51.7767 21.4523 52.1772C21.436 52.2152 21.4179 52.2533 21.4016 52.2914C21.2185 52.6991 21.0446 53.1123 20.8778 53.5291C20.8652 53.5599 20.8525 53.5925 20.8398 53.6233C20.6731 54.0474 20.5154 54.4769 20.3668 54.9118C20.3577 54.9372 20.3505 54.9607 20.3414 54.9861C20.191 55.4265 20.0515 55.8723 19.9228 56.3217C19.9174 56.3416 19.9119 56.3597 19.9065 56.3797C19.776 56.8345 19.6564 57.2948 19.5459 57.7588C19.5423 57.7733 19.5404 57.7859 19.5368 57.8004C19.4263 58.2698 19.3284 58.7446 19.2396 59.2212C19.2396 59.2303 19.236 59.2393 19.2342 59.2466C19.1454 59.7286 19.0693 60.2161 19.0022 60.7054C19.0022 60.7108 19.0022 60.7144 19.0004 60.7199C18.9352 61.2128 18.8808 61.7112 18.8391 62.2113C18.8391 62.2113 18.8391 62.2131 18.8391 62.2149C18.7684 63.0631 18.7231 63.9166 18.7231 64.781C18.7231 81.6236 32.378 95.2785 49.2206 95.2785C49.2351 95.2785 49.2514 95.2785 49.2659 95.2785C49.2804 95.2785 49.2967 95.2785 49.313 95.2785C55.0251 95.2785 60.3692 93.7037 64.9378 90.9709C64.9287 90.9582 64.9197 90.9455 64.9106 90.9328C67.078 89.6299 69.0732 88.0677 70.8455 86.2845C68.8847 83.5608 67.2846 80.5598 66.1193 77.3504C62.2883 82.4934 56.1649 85.8279 49.2623 85.8406C37.6533 85.8134 28.2517 76.3972 28.2517 64.781C28.2517 53.1648 37.6533 43.7487 49.2623 43.7215C49.6447 43.7215 50.0234 43.7342 50.4003 43.7559C50.5489 43.765 50.6975 43.7777 50.8461 43.7903C51.0872 43.8085 51.3282 43.8284 51.5674 43.8556C51.7287 43.8737 51.8918 43.8936 52.0531 43.9154C52.2796 43.9462 52.5061 43.9806 52.7308 44.0187C52.8885 44.0441 53.0443 44.0712 53.2002 44.1002C53.4448 44.1473 53.6877 44.1999 53.9305 44.2561C54.0592 44.2851 54.1896 44.3123 54.3165 44.3431C54.6717 44.4319 55.0251 44.5279 55.373 44.6348C55.4872 44.6693 55.5977 44.7091 55.7101 44.7454C55.9565 44.8251 56.2012 44.9067 56.4422 44.9955C56.5817 45.0462 56.7195 45.1006 56.859 45.1549C57.0747 45.2383 57.2867 45.3253 57.4987 45.4159C57.6364 45.4757 57.7742 45.5337 57.9101 45.5971C58.1294 45.6968 58.345 45.8001 58.5607 45.907C58.6785 45.9668 58.7981 46.023 58.9158 46.0828C59.2348 46.2495 59.5501 46.4198 59.8582 46.6011C59.9017 46.6264 59.9452 46.6554 59.9887 46.6808C60.2677 46.8475 60.5414 47.0197 60.8132 47.1991C60.9201 47.2698 61.0234 47.3441 61.1285 47.4165C61.3315 47.5561 61.5309 47.6974 61.7284 47.8424C61.8389 47.924 61.9495 48.0073 62.0582 48.0925C62.2521 48.2411 62.4406 48.3933 62.629 48.5492C62.7287 48.6307 62.8284 48.7123 62.9262 48.7956C63.151 48.9877 63.372 49.1871 63.5877 49.39C63.6402 49.439 63.6946 49.4861 63.7472 49.5368C64.0136 49.7905 64.2709 50.0515 64.5246 50.3179C64.5953 50.3922 64.6605 50.4683 64.7294 50.5444C64.9106 50.7419 65.09 50.9431 65.264 51.1479C65.3473 51.2475 65.4307 51.3472 65.5122 51.4469C65.6699 51.639 65.8221 51.8329 65.9725 52.0286C68.033 54.7324 69.4538 57.9472 70.0119 61.4502H42.6115L42.6423 61.6205C43.6626 66.9339 48.3344 70.9515 53.945 70.9515C53.9667 70.9515 53.9867 70.9515 54.0066 70.9515H70.8763C73.7306 84.8348 86.0209 95.2749 100.749 95.2749C108.9 95.2749 116.304 92.0763 121.776 86.8663V104.323C121.776 104.347 121.776 104.367 121.776 104.387C121.776 109.999 125.791 114.669 131.107 115.689L131.277 115.72V64.7774H131.244H131.251ZM100.754 85.8369C89.127 85.8369 79.7017 76.4153 79.6945 64.7919V64.7629C79.7017 53.1395 89.1288 43.7179 100.754 43.7179C112.379 43.7179 121.814 53.1467 121.814 64.7774H121.781V65.9408C121.177 77.0315 111.993 85.8369 100.754 85.8369Z" fill="#01010F"/>
</svg>
