<svg width="150" height="150" viewBox="0 0 150 150" fill="none" xmlns="http://www.w3.org/2000/svg">
<path d="M78.0562 20.6467C76.3718 18.9623 73.6282 18.9601 71.9416 20.6467L32.1999 60.3884V78.7097H44.6136V65.5315L75 35.1473L105.386 65.5337V78.712H117.8V60.3906L78.0562 20.6467Z" fill="#01010F"/>
<path d="M96.7846 64.7959L77.8875 45.8988L89.8222 64.7959H96.7846Z" fill="#01010F"/>
<path d="M62.3029 64.7959H65.838C65.7593 65.2839 65.7166 65.7832 65.7166 66.2914C65.7166 71.4188 69.8725 75.5724 74.9976 75.5724C80.1227 75.5724 84.2786 71.4166 84.2786 66.2914C84.2786 65.7809 84.2359 65.2839 84.1572 64.7959H87.6923L74.9976 44.6957L62.3029 64.7959Z" fill="#01010F"/>
<path d="M60.1755 64.7959L72.1101 45.8988L53.213 64.7959H60.1755Z" fill="#01010F"/>
<path d="M83.3454 118.202C83.3342 122.8 79.6011 126.525 74.9999 126.525C70.3988 126.525 66.6657 122.8 66.6545 118.202H44.6158V85.9081H32.2021V126.291C32.2021 128.677 34.1429 130.617 36.5289 130.617H113.473C115.859 130.617 117.8 128.677 117.8 126.291V85.9081H105.386V118.202H83.3454Z" fill="#01010F"/>
</svg>
