<svg width="150" height="150" viewBox="0 0 150 150" fill="none" xmlns="http://www.w3.org/2000/svg">
<path d="M59.8311 77.881C59.2204 79.4047 57.469 80.2411 55.8668 80.0879C55.0284 80.0113 54.2666 79.705 53.6559 79.0963C52.8941 78.3345 52.5152 77.1132 52.5938 75.515L63.3399 75.527V74.9164C63.2694 70.7244 60.9113 66.9112 56.413 66.754C56.2598 66.6795 56.0321 66.6795 55.8809 66.754C53.7466 66.752 51.9166 67.4372 50.5421 68.7311C49.0165 70.1782 48.176 72.4636 48.174 75.2066C48.17 79.5518 51.2898 82.6031 55.8648 82.7603H56.2437C58.8375 82.6877 60.742 81.9259 61.8868 80.632C62.7252 79.6425 63.0336 78.5743 63.1101 77.8891L59.8311 77.8851V77.881ZM53.3617 70.1762C53.8978 69.4143 54.7341 69.0354 55.8789 69.0354H56.1832C58.4687 69.0375 59.0773 70.7163 59.1499 72.6974V73.1549L55.8749 73.1509H55.7217L52.5978 73.1469C52.5212 72.2319 52.5998 71.0871 53.3617 70.1742" fill="#01010F"/>
<path d="M44.897 73.0642H44.2883V73.5963C43.8994 79.6183 43.2907 79.6183 37.4219 79.6122H36.5069C35.4408 79.6122 35.0578 79.4571 34.9067 79.3039C34.9067 79.2273 34.8301 79.1507 34.8301 78.6932L34.8422 66.6512C34.8422 66.4215 34.8422 64.7447 36.0655 64.7467H37.6637L38.2744 64.7487V62.2315L26.7665 62.2214V64.7366H27.3772L29.0519 64.7386C29.2797 64.7386 29.9669 64.7386 29.9669 66.6452L29.9548 78.0785C29.9548 78.8403 29.7251 79.6788 28.7315 79.6767H27.1333L26.5206 79.6747V82.1879L46.8721 82.2061V81.674L47.4888 73.6709L47.5674 73.0622H46.8822L44.899 73.0602L44.897 73.0642Z" fill="#01010F"/>
<path d="M107.388 80.1383C106.55 80.0617 105.788 79.7553 105.18 79.0681C104.418 78.3808 104.115 77.087 104.192 75.5613L114.864 75.5734V74.9627C114.789 70.6941 112.508 66.9556 108.011 66.7238H107.401C105.268 66.7218 103.436 67.407 102.142 68.6989C100.538 70.2225 99.6997 72.4314 99.6977 75.2509C99.6936 79.5195 102.89 82.5708 107.386 82.728H107.769C110.361 82.6555 112.268 81.9703 113.412 80.5998C114.327 79.6868 114.634 78.6207 114.712 77.8588L111.433 77.8548C110.744 79.455 108.995 80.2914 107.39 80.1362M104.885 70.152C105.419 69.4647 106.334 69.0858 107.401 69.0113H107.707C110.069 69.0133 110.601 70.7667 110.676 72.7478C110.676 72.901 110.676 73.0521 110.75 73.2053C109.609 73.1287 108.541 73.1267 107.396 73.1267H107.245L104.121 73.1227C104.045 72.2843 104.198 71.065 104.885 70.152Z" fill="#01010F"/>
<path d="M126.154 66.7419C123.868 66.7399 122.343 68.1104 121.502 69.4043L121.198 67.7275L121.123 67.1934H120.589L115.18 67.1873H114.569V69.3196L114.567 69.8537H115.178L116.625 69.8557C117.615 69.8557 117.613 70.6196 117.613 70.7707L117.604 78.6207C117.604 79.6888 117.147 79.9166 116.462 79.9166H114.783V82.2766L124.846 82.2847V79.9246H123.092C122.635 79.9246 122.254 79.846 122.101 79.6183C121.873 79.3906 121.796 79.0842 121.799 78.7799L121.803 74.6645C121.803 73.9026 121.958 70.6256 124.475 69.5615C124.398 69.7912 124.398 69.9424 124.398 70.0935C124.398 71.3128 125.462 72.3044 126.758 72.3064C128.282 72.3064 129.352 71.2423 129.354 69.7187C129.354 68.0419 127.984 66.746 126.156 66.7439" fill="#01010F"/>
<path d="M73.7152 66.6895C73.564 66.6895 73.3342 66.6895 73.1045 66.7641C71.6574 66.9153 70.2063 67.7537 69.1402 68.8178L68.9125 67.6751L68.8359 67.2176L68.3018 67.143L62.8905 67.139V69.2712L62.8884 69.8053H64.4867C64.793 69.8819 65.4802 69.9585 65.5548 71.1012L65.5407 84.6689C65.5407 85.9648 64.6237 85.9648 64.3194 85.9628H62.8723V88.3268L72.3971 88.3349V85.9728H70.8734C70.5671 85.9728 69.7307 85.9728 69.7307 84.6749L69.7347 81.2447C70.5711 82.0851 71.7139 82.5426 73.0863 82.6958H73.697C77.889 82.6998 80.8638 79.5014 80.8698 74.9305C80.8759 69.5191 77.2965 66.6956 73.7131 66.6915M73.0904 80.0274C70.2708 80.0254 69.7408 77.1273 69.7428 74.6886C69.7448 72.25 70.2809 69.3539 73.1005 69.3559C75.7688 69.3579 76.3755 72.2561 76.3714 74.6947C76.3694 77.1333 75.7568 80.0294 73.0884 80.0274" fill="#01010F"/>
<path d="M91.3962 66.7077C91.2451 66.7077 91.0153 66.7077 90.7876 66.7822C89.3385 66.9334 87.7363 67.6166 86.8213 68.7593L86.4424 67.6146L86.2912 67.2337L85.8337 67.1591L80.497 67.1551V69.2874L80.4949 69.8215H82.2504C82.9336 69.9001 83.2399 70.7364 83.2399 71.1174L83.2258 84.685C83.2258 85.9809 82.3088 85.9809 82.0045 85.9789H80.4788V88.3429L90.0842 88.351V85.989H88.5585C87.4158 85.989 87.4158 85.6826 87.4178 85.1506L87.4219 81.2629C88.2583 82.1033 89.401 82.5608 90.7735 82.7139H91.3821C95.6507 82.718 98.6275 79.5216 98.6335 74.9486C98.6396 69.5373 94.9816 66.7137 91.3982 66.7097M90.7755 80.0456C87.9559 80.0435 87.4259 77.1454 87.4279 74.7068C87.4299 72.2681 87.966 69.372 90.7856 69.374C93.5285 69.3761 94.1372 72.2742 94.1351 74.7128C94.1331 77.1515 93.5184 80.0476 90.7755 80.0456Z" fill="#01010F"/>
<path d="M150 75.1502C150.016 59.678 116.415 47.0676 75.0272 47.0273C33.641 46.987 0.016129 59.5288 5.80006e-06 75.001C-0.0161174 90.3966 33.5846 102.93 74.9707 102.973C116.359 103.013 149.984 90.5458 149.998 75.1502M74.9768 99.4659C40.7554 99.4317 13.0235 88.4296 13.0356 75.0151C13.0497 61.4475 40.8017 50.4998 75.0252 50.5341C109.247 50.5684 136.982 61.5704 136.968 75.1381C136.954 88.5525 109.198 99.5002 74.9768 99.4659Z" fill="#01010F"/>
</svg>
