<svg width="150" height="150" viewBox="0 0 150 150" fill="none" xmlns="http://www.w3.org/2000/svg">
<path d="M55.5375 81.8892C55.6189 81.9055 55.7003 81.9381 55.7818 81.9544C55.7818 81.9544 55.8143 81.9544 55.8306 81.9544C55.9283 81.9869 56.0261 82.0032 56.1238 82.0195C56.1563 82.0195 56.1726 82.0195 56.2052 82.0358C56.2866 82.0521 56.3844 82.0684 56.4658 82.101H56.4984C56.5961 82.1172 56.6938 82.1335 56.7915 82.1661C56.8241 82.1661 56.8404 82.1661 56.873 82.1661C56.9707 82.1661 57.0521 82.1987 57.1498 82.215C57.1498 82.215 57.1661 82.215 57.1824 82.215C57.2801 82.215 57.3778 82.2475 57.4918 82.2638C57.5244 82.2638 57.5407 82.2638 57.5733 82.2638C57.671 82.2638 57.7687 82.2801 57.8664 82.2964C57.8664 82.2964 57.8664 82.2964 57.8827 82.2964C57.9804 82.2964 58.0945 82.3127 58.1922 82.329C58.2247 82.329 58.241 82.329 58.2736 82.329C58.3713 82.329 58.4691 82.329 58.5831 82.3453C58.6808 82.3453 58.7948 82.3453 58.8925 82.3453C58.9251 82.3453 58.9414 82.3453 58.9739 82.3453C59.0879 82.3453 59.1857 82.3453 59.2997 82.3453H59.658V47.8664C61.7752 41.3843 67.899 36.6612 75.0651 36.6612C82.2313 36.6612 89.6906 42.4756 91.0261 50.0651V50.0326C90.9772 50.7329 90.9446 51.4495 90.9446 52.1661C90.9446 55.4397 91.4821 58.583 92.4593 61.5146C93.6156 64.9837 95.4072 68.1759 97.7036 70.9446C99.6254 73.2736 101.906 75.3094 104.446 76.9544C109.055 79.9348 114.544 81.6612 120.44 81.6612C136.726 81.6612 149.935 68.4527 149.935 52.1661C149.935 35.8795 136.726 22.671 120.44 22.671C104.153 22.671 104.723 26.0586 99.3811 31.5146C101.759 34.1042 104.072 37.9804 106.238 44.772C108.909 39.6417 114.267 36.1563 120.456 36.1563C129.3 36.1563 136.466 43.3225 136.466 52.1661C136.466 61.0098 129.3 68.1759 120.456 68.1759C111.612 68.1759 104.788 61.3518 104.446 52.8176C104.446 52.6058 104.446 52.3778 104.446 52.1661C104.446 51.9544 104.446 51.7264 104.446 51.5146C104.3 44.6254 101.792 38.3387 97.7036 33.3876C92.2964 26.8404 84.1205 22.671 74.9511 22.671C65.7818 22.671 57.4756 26.9218 52.0684 33.5668C46.6612 26.9218 38.4202 22.671 29.1857 22.671C15.7329 22.671 4.3811 31.6775 0.846901 43.9902C0.586315 44.9185 0.358302 45.8632 0.179149 46.8241V68.9088C0.179149 76.026 6.00977 81.8567 13.127 81.8567H13.4691V52.8664C13.4691 43.9576 20.7492 36.6775 29.658 36.6775C38.5668 36.6775 43.4691 41.8241 45.3094 48.7459V68.355C45.3094 68.469 45.3094 68.5668 45.3094 68.6808C45.3094 68.7133 45.3094 68.7296 45.3094 68.7622C45.3094 68.8599 45.3094 68.9576 45.3094 69.0391C45.3094 69.0391 45.3094 69.0716 45.3094 69.0879C45.3094 69.1856 45.3094 69.2997 45.3257 69.3974C45.3257 69.4299 45.3257 69.4462 45.3257 69.4788C45.3257 69.5602 45.3257 69.658 45.342 69.7394C45.342 69.7557 45.342 69.772 45.342 69.8045C45.342 69.9023 45.3583 70.0163 45.3746 70.114C45.3746 70.1303 45.3746 70.1628 45.3746 70.1791C45.3746 70.2606 45.3909 70.3583 45.4072 70.4397C45.4072 70.456 45.4072 70.4886 45.4072 70.5049C45.4072 70.6026 45.4397 70.7166 45.456 70.8143C45.456 70.8143 45.456 70.8469 45.456 70.8632C45.4723 70.9609 45.4886 71.0423 45.5049 71.1238C45.5049 71.14 45.5049 71.1726 45.5049 71.1889C45.5212 71.2866 45.5537 71.4006 45.57 71.4983C45.57 71.4983 45.57 71.4984 45.57 71.5146C45.5863 71.6124 45.6189 71.7101 45.6352 71.7915C45.6352 71.8241 45.6352 71.8404 45.6515 71.8729C45.684 71.9707 45.7003 72.0521 45.7329 72.1498C45.7329 72.1498 45.7329 72.1498 45.7329 72.1661C45.7655 72.2638 45.7817 72.3615 45.8143 72.4593C45.8143 72.4756 45.8143 72.5081 45.8306 72.5244C45.8958 72.7198 45.9609 72.9153 46.0261 73.1107C46.0261 73.127 46.0261 73.1596 46.0423 73.1759C46.1075 73.3713 46.1889 73.5667 46.2704 73.7459C46.2704 73.7622 46.2866 73.7785 46.3029 73.8111C46.3355 73.9088 46.3844 74.0065 46.4332 74.0879C46.4821 74.1856 46.5146 74.2671 46.5635 74.3648C46.5635 74.3811 46.5798 74.3974 46.5961 74.4299C46.6449 74.5277 46.6938 74.6091 46.7264 74.7068C46.7752 74.7883 46.8241 74.886 46.8567 74.9674C46.8567 74.9837 46.873 75 46.8892 75.0326C46.9381 75.114 46.987 75.2117 47.0358 75.2931C47.0358 75.2931 47.0358 75.3094 47.0358 75.3257C47.0684 75.3746 47.101 75.4234 47.1335 75.4886C47.1335 75.5211 47.1661 75.5374 47.1824 75.57C47.1824 75.5863 47.215 75.6189 47.215 75.6352C47.2638 75.7166 47.3127 75.798 47.3778 75.8795C47.3778 75.8795 47.3778 75.8957 47.3941 75.912C47.443 75.9935 47.4918 76.0586 47.5407 76.1238C47.5407 76.14 47.5733 76.1726 47.5896 76.1889C47.6384 76.2703 47.7036 76.3518 47.7524 76.4332C47.7524 76.4332 47.7687 76.4658 47.785 76.4821C47.8339 76.5472 47.8827 76.6124 47.9316 76.6938C47.9316 76.7101 47.9642 76.7426 47.9804 76.7589C48.0456 76.8404 48.0945 76.9055 48.1596 76.9869C48.1596 76.9869 48.1922 77.0195 48.1922 77.0358C48.241 77.101 48.2899 77.1661 48.3388 77.2312C48.355 77.2475 48.3713 77.2801 48.3876 77.2964C48.4528 77.3778 48.5179 77.443 48.5668 77.5081C48.5668 77.5244 48.5993 77.5407 48.6156 77.557C48.6645 77.6221 48.7133 77.671 48.7785 77.7361C48.7948 77.7524 48.8111 77.7687 48.8274 77.8013C48.8925 77.8664 48.9576 77.9479 49.0228 78.013C49.0391 78.0293 49.0554 78.0456 49.0717 78.0619C49.1205 78.1107 49.1857 78.1759 49.2345 78.2247C49.2508 78.241 49.2671 78.2573 49.2997 78.2899C49.3648 78.355 49.43 78.4202 49.4951 78.4853C49.5114 78.5016 49.5277 78.5179 49.544 78.5342C49.5928 78.583 49.658 78.6319 49.7068 78.697C49.7231 78.7133 49.7394 78.7296 49.772 78.7459C49.8371 78.8111 49.9186 78.8762 49.9837 78.9413C50 78.9576 50.0163 78.9739 50.0489 78.9902C50.114 79.0391 50.1629 79.0879 50.228 79.1368C50.2443 79.1531 50.2769 79.1694 50.2932 79.1856C50.3583 79.2508 50.4397 79.2996 50.5049 79.3648C50.5212 79.3811 50.5537 79.3974 50.57 79.4137C50.6352 79.4625 50.684 79.5114 50.7492 79.5602C50.7655 79.5765 50.798 79.5928 50.8143 79.6091C50.8958 79.658 50.9609 79.7231 51.0423 79.772C51.0586 79.772 51.0912 79.8045 51.1075 79.8208C51.1726 79.8697 51.2378 79.9023 51.3029 79.9511C51.3192 79.9511 51.3518 79.9837 51.3681 80C51.4495 80.0488 51.5309 80.0977 51.5961 80.1628C51.6124 80.1628 51.6449 80.1954 51.6612 80.2117C51.7264 80.2606 51.7915 80.2931 51.8567 80.342C51.873 80.342 51.9055 80.3746 51.9218 80.3746C52.0033 80.4234 52.0847 80.4723 52.1661 80.5212C52.1987 80.5212 52.215 80.5537 52.2475 80.57C52.3127 80.6026 52.3778 80.6514 52.443 80.684C52.4593 80.684 52.4918 80.7003 52.5081 80.7166C52.5896 80.7655 52.671 80.8143 52.7524 80.8469C52.785 80.8469 52.8013 80.8795 52.8339 80.8795C52.899 80.912 52.9804 80.9446 53.0456 80.9772C53.0619 80.9772 53.0945 80.9935 53.1107 81.0098C53.1922 81.0586 53.2899 81.0912 53.3713 81.1238C53.4039 81.1238 53.4202 81.14 53.4528 81.1563C53.5342 81.1889 53.5993 81.2215 53.6808 81.2541C53.6971 81.2541 53.7133 81.2703 53.7459 81.2866C53.8274 81.3192 53.9251 81.3681 54.0065 81.4006C54.0391 81.4006 54.0554 81.4169 54.0879 81.4332C54.1694 81.4658 54.2345 81.4983 54.316 81.5146C54.3322 81.5146 54.3485 81.5146 54.3648 81.5309C54.4625 81.5635 54.544 81.5961 54.6417 81.6286C54.6743 81.6286 54.6905 81.6449 54.7231 81.6612C54.8046 81.6938 54.886 81.7101 54.9674 81.7427C54.9837 81.7427 55 81.7426 55.0163 81.7589C55.114 81.7915 55.2117 81.8241 55.2932 81.8404C55.3257 81.8404 55.342 81.8404 55.3746 81.8567L55.5375 81.8892Z" fill="#01010F"/>
<path d="M90.9121 65.0651V99.9511H91.2704C98.974 99.9511 105.277 93.6482 105.277 85.9446V80.7329C99.1857 76.6287 94.2997 70.6352 90.8958 65.0814L90.9121 65.0651Z" fill="#01010F"/>
<path d="M52.4267 104.87C52.1173 104.87 51.8404 104.984 51.6124 105.212C51.3844 105.44 51.2704 105.717 51.2704 106.026C51.2704 106.335 51.3844 106.629 51.6124 106.857C51.8404 107.085 52.1173 107.199 52.4267 107.199C52.7362 107.199 53.0293 107.085 53.2573 106.857C53.4853 106.629 53.5993 106.352 53.5993 106.026C53.5993 105.7 53.4853 105.44 53.2573 105.212C53.0293 104.984 52.7524 104.87 52.4267 104.87Z" fill="#01010F"/>
<path d="M17.101 108.046C16.0912 108.046 15.0977 108.306 14.1368 108.827C13.1596 109.349 12.3779 110.033 11.7427 110.863C11.1889 110.016 10.4723 109.332 9.56026 108.811C8.66449 108.306 7.67101 108.046 6.61238 108.046C5.55375 108.046 5.01629 108.192 4.31596 108.502C3.74593 108.73 3.09446 109.137 2.32899 109.739V108.257H0V122.573H2.32899V114.43C2.32899 113.225 2.70358 112.215 3.46906 111.401C4.23453 110.586 5.21173 110.179 6.40065 110.179C7.58958 110.179 8.56678 110.586 9.33225 111.417C10.0977 112.248 10.4723 113.241 10.4723 114.43V122.573H12.7362V114.365C12.7362 113.192 13.127 112.199 13.9251 111.384C14.7231 110.57 15.7166 110.179 16.9055 110.179C18.0945 110.179 19.0554 110.586 19.8046 111.417C20.57 112.248 20.9446 113.241 20.9446 114.43V122.573H23.2248V114.316C23.2248 112.59 22.6222 111.124 21.4332 109.886C20.2443 108.664 18.7785 108.046 17.0521 108.046H17.101Z" fill="#01010F"/>
<path d="M35.1791 116.401C35.1791 117.59 34.7883 118.599 34.0228 119.414C33.2573 120.228 32.2801 120.635 31.0912 120.635C29.9023 120.635 28.9414 120.228 28.1922 119.397C27.4267 118.567 27.0521 117.573 27.0521 116.384V108.29H24.772V116.498C24.772 118.225 25.3746 119.691 26.5635 120.928C27.7524 122.15 29.2019 122.769 30.9283 122.769C32.6547 122.769 32.5244 122.622 33.2085 122.313C33.7785 122.085 34.43 121.678 35.1954 121.075V122.59H37.5244V108.29H35.1954V116.417L35.1791 116.401Z" fill="#01010F"/>
<path d="M41.5472 104.479H39.2182V122.573H41.5472V104.479Z" fill="#01010F"/>
<path d="M48.7459 120.489C47.2313 120.489 46.1889 120.065 45.5863 119.235C45.456 119.072 45.342 118.778 45.2117 118.371C45.0814 117.964 45.0163 117.655 45.0163 117.443V110.391H49.9837V108.257H45.0163V104.479H42.7525V118.111C42.7525 119.088 43.0456 119.967 43.6156 120.765C44.202 121.563 44.9511 122.085 45.8795 122.345C46.2867 122.459 46.7915 122.557 47.3616 122.59C47.7687 122.59 48.3062 122.59 48.9577 122.59C49.8371 122.59 50.3257 122.573 50.4235 122.573V120.489H48.7297H48.7459Z" fill="#01010F"/>
<path d="M53.5993 108.046H51.2704V122.573H53.5993V108.046Z" fill="#01010F"/>
<path d="M66.0586 110.326C64.6091 108.941 62.8502 108.257 60.7818 108.257H55.1954V127.329H57.4104V122.573H60.8795C62.2801 122.573 63.5668 122.231 64.7231 121.547C65.8795 120.863 66.7753 119.919 67.3941 118.697C67.9479 117.655 68.2248 116.58 68.2248 115.456C68.2248 113.42 67.4919 111.694 66.0424 110.326H66.0586ZM64.316 119.055C63.3062 120.016 62.0684 120.489 60.6026 120.489H57.4267V110.537H60.6678C62.1336 110.537 63.3551 110.993 64.3485 111.922C65.342 112.85 65.8306 114.023 65.8306 115.456C65.8306 116.889 65.3257 118.111 64.316 119.055Z" fill="#01010F"/>
<path d="M82.671 109.609C81.3681 108.583 79.5766 108.062 77.2964 108.046C75.1792 108.046 73.3551 108.762 71.8241 110.195C70.2932 111.629 69.544 113.371 69.544 115.44C69.544 117.508 70.3095 119.251 71.8241 120.668C73.3388 122.085 75.1629 122.785 77.2964 122.785C79.43 122.785 80.2117 122.492 81.4658 121.889C82.8339 121.27 83.8437 120.358 84.4625 119.186L82.9316 117.704C82.5733 118.632 81.759 119.381 80.4886 119.919C79.3974 120.375 78.2248 120.603 77.0196 120.603C75.8143 120.603 74.3648 120.098 73.3551 119.088C72.3453 118.078 71.8241 116.857 71.8078 115.423C71.8078 113.958 72.329 112.72 73.4202 111.694C74.5114 110.668 75.8143 110.163 77.3127 110.163C80.3257 110.163 82.0521 111.547 82.4756 114.3H82.4593C82.4593 114.316 73.9902 114.316 73.9902 114.316V116.14H84.9674C84.9674 115.798 84.9837 115.489 84.9837 115.179C84.9837 112.655 84.2182 110.782 82.671 109.577V109.609Z" fill="#01010F"/>
<path d="M97.0684 108.257H93.5994C92.1987 108.257 90.9121 108.599 89.7557 109.267C88.5993 109.935 87.7036 110.879 87.0521 112.101C86.5147 113.16 86.2541 114.267 86.2541 115.423C86.2541 117.459 86.9707 119.169 88.4202 120.537C89.8697 121.906 91.6287 122.59 93.6971 122.59H99.2834V104.495H97.0684V108.274V108.257ZM97.0684 120.261H93.8274C92.3616 120.261 91.1238 119.805 90.1303 118.909C89.1368 118.013 88.6319 116.84 88.6319 115.407C88.6319 113.974 89.1368 112.752 90.1629 111.775C91.1889 110.798 92.4267 110.309 93.8925 110.309H97.0684V120.261Z" fill="#01010F"/>
<path d="M103.208 108.046H100.879V122.573H103.208V108.046Z" fill="#01010F"/>
<path d="M115.635 108.257H112.166C110.765 108.257 109.479 108.599 108.322 109.267C107.166 109.935 106.27 110.879 105.619 112.101C105.081 113.16 104.821 114.267 104.821 115.423C104.821 117.459 105.537 119.169 106.987 120.537C108.436 121.906 110.195 122.59 112.264 122.59H117.85V104.495H115.635V108.274V108.257ZM115.635 120.261H112.394C110.928 120.261 109.691 119.805 108.697 118.909C107.704 118.013 107.199 116.84 107.199 115.407C107.199 113.974 107.704 112.752 108.73 111.775C109.756 110.798 110.993 110.309 112.459 110.309H115.635V120.261Z" fill="#01010F"/>
<path d="M132.671 110.195C131.124 108.762 129.3 108.046 127.182 108.046C125.065 108.046 123.257 108.762 121.743 110.195C120.212 111.629 119.463 113.371 119.463 115.44C119.463 117.508 120.228 119.234 121.743 120.651C123.274 122.068 125.081 122.785 127.182 122.785C129.283 122.785 131.124 122.068 132.671 120.651C134.218 119.234 134.984 117.492 134.984 115.44C134.984 113.388 134.218 111.629 132.671 110.195ZM131.091 119.12C130 120.114 128.697 120.603 127.199 120.603C125.7 120.603 124.414 120.114 123.339 119.12C122.248 118.127 121.71 116.906 121.694 115.44C121.694 113.974 122.231 112.736 123.322 111.71C124.414 110.684 125.7 110.179 127.215 110.179C128.73 110.179 130.033 110.684 131.14 111.71C132.248 112.736 132.785 113.974 132.769 115.44C132.769 116.906 132.199 118.127 131.107 119.12H131.091Z" fill="#01010F"/>
<path d="M149.43 116.075C148.616 114.625 147.329 113.909 145.586 113.909H139.56C139.088 113.909 138.681 113.746 138.355 113.42C138.013 113.094 137.85 112.704 137.85 112.215C137.85 111.726 138.013 111.368 138.355 111.042C138.681 110.717 139.088 110.554 139.56 110.554H149.43V108.241H139.479C138.388 108.241 137.443 108.632 136.678 109.414C135.912 110.195 135.521 111.124 135.521 112.199C135.521 113.274 135.7 113.583 136.075 114.218C136.84 115.521 137.98 116.156 139.528 116.156H145.456C146.042 116.156 146.531 116.352 146.938 116.743C147.345 117.134 147.541 117.606 147.541 118.176C147.541 118.746 147.329 119.218 146.922 119.609C146.515 120 146.026 120.195 145.456 120.195H135.684V122.573H145.472C146.743 122.573 147.801 122.166 148.681 121.368C149.56 120.554 150 119.511 150 118.241C150 116.971 149.805 116.759 149.43 116.091V116.075Z" fill="#01010F"/>
<path d="M102.036 104.87C101.726 104.87 101.45 104.984 101.222 105.212C100.993 105.44 100.879 105.717 100.879 106.026C100.879 106.335 100.993 106.629 101.222 106.857C101.45 107.085 101.726 107.199 102.036 107.199C102.345 107.199 102.638 107.085 102.866 106.857C103.094 106.629 103.208 106.352 103.208 106.026C103.208 105.7 103.094 105.44 102.866 105.212C102.638 104.984 102.362 104.87 102.036 104.87Z" fill="#01010F"/>
</svg>
