<svg width="150" height="150" viewBox="0 0 150 150" fill="none" xmlns="http://www.w3.org/2000/svg">
<g clip-path="url(#clip0_15_147)">
<path d="M40.9246 58.3545L34.1752 79.5576L21.2212 58.3385L10.6127 58.3407L0 91.6519L1.51672 91.6583L8.26514 70.4467L21.2233 91.6636H31.8318L42.4424 58.3545H40.9246Z" fill="#01010F"/>
<path d="M149.973 70.4552L149.828 70.4531H124.316C123.661 70.4541 123.067 70.6045 122.49 70.9224C121.564 71.4333 120.659 72.2439 120.323 73.2945L115.409 88.6707C115.095 89.6509 115.308 90.7218 116.166 91.2956C116.551 91.542 116.964 91.6476 117.433 91.6625H143.259L143.746 90.1448H131.095C130.672 90.1448 130.35 90.1309 129.99 90.0029C129.323 89.7672 128.827 89.2211 128.695 88.515C128.615 88.0873 128.621 87.6468 128.761 87.2116L132.737 74.7845C133.183 73.3894 135.008 71.9794 136.531 71.9783L149.531 71.9708L149.987 70.5522C150.003 70.501 150.01 70.4541 149.972 70.4541L149.973 70.4552Z" fill="#01010F"/>
<path d="M41.6243 70.4541L34.8674 91.6625H47.7509L54.509 70.4509L41.6243 70.4541Z" fill="#01010F"/>
<path d="M45.3959 67.4111H52.6147C54.094 67.4111 55.9041 65.9946 56.3617 64.5803L57.4187 61.3133C57.7632 60.2478 57.4507 59.0532 56.4139 58.57C56.095 58.4217 55.7676 58.3407 55.3996 58.3407L48.3397 58.3524C46.8689 58.3545 45.0482 59.7699 44.5991 61.1704L43.5026 64.5888C43.3096 65.1925 43.3682 65.8464 43.6776 66.3935C44.0167 66.994 44.6738 67.4111 45.3969 67.4111H45.3959Z" fill="#01010F"/>
<path d="M77.3151 58.3417L73.0658 71.67C73.1351 71.0482 72.7863 70.5074 72.1208 70.4552H60.5982C58.93 70.4541 57.2693 71.7244 56.64 73.2753L51.7454 88.643C51.3774 89.7992 51.7155 91.014 52.8248 91.4695C53.1192 91.59 53.4125 91.6604 53.7495 91.6604L79.4729 91.6625C79.5561 91.6625 79.5774 91.67 79.6115 91.5953L90.2008 58.3364L77.3162 58.3407L77.3151 58.3417ZM72.5634 73.2401L67.6517 88.6782C67.3392 89.6616 66.2395 90.3741 65.2006 90.0797C64.7505 89.9517 64.3985 89.3971 64.5617 88.883L69.5236 73.2977C69.6996 72.7441 70.2233 72.3569 70.7001 72.1255C71.1918 71.8876 72.0269 71.8876 72.3661 72.3431C72.5378 72.5735 72.6626 72.9254 72.5623 73.2412L72.5634 73.2401Z" fill="#01010F"/>
<path d="M98.642 81.8124L114.558 81.8145L117.203 73.5217C117.34 73.095 117.392 72.6972 117.345 72.2599C117.27 71.782 117.084 71.3341 116.708 71.0088C116.329 70.6813 115.831 70.4584 115.297 70.4584L92.2626 70.4627C90.7768 70.4627 88.9348 71.8866 88.4889 73.2838L83.5601 88.7187C83.1825 89.9026 83.6551 91.1858 84.8806 91.5495C85.1366 91.6231 85.3659 91.6625 85.6475 91.6625H111.428L111.906 90.1458L98.979 90.1437C97.9145 90.1437 97.0356 89.5091 96.8437 88.4659C96.769 88.0329 96.8063 87.6308 96.9279 87.1988L98.643 81.8124H98.642ZM101.284 73.5142C101.435 73.0396 101.69 72.6727 102.086 72.3815C102.541 72.0466 103.09 71.8919 103.654 72.0071C104.265 72.1319 104.554 72.7612 104.374 73.3286L102.157 80.3021L99.1251 80.3L101.284 73.5131V73.5142Z" fill="#01010F"/>
</g>
<defs>
<clipPath id="clip0_15_147">
<rect width="150" height="150" fill="white"/>
</clipPath>
</defs>
</svg>
