<svg width="150" height="150" viewBox="0 0 150 150" fill="none" xmlns="http://www.w3.org/2000/svg">
<path d="M69.421 75.5147L59.4863 91.2316V96.7885H73.3109L86.7586 75.5147H69.421Z" fill="#01010F"/>
<path d="M48.4354 75.0896L58.6381 58.9476V53.3908H44.8134L8.42877 110.955H25.7664L39.7666 88.8034L44.8134 96.7885H58.6381V91.2316L48.4354 75.0896Z" fill="#01010F"/>
<path d="M86.7586 74.6646L73.3109 53.3908H59.4863V58.9476L69.421 74.6646H86.7586Z" fill="#01010F"/>
<path d="M59.0613 69.8137L55.7017 75.1044L59.0594 80.4062L62.4153 75.1044L59.0613 69.8137Z" fill="#01010F"/>
<path d="M127.852 75.535L137.787 91.252V96.8088H123.962L110.516 75.535H127.852Z" fill="#01010F"/>
<path d="M110.516 74.6849L123.962 53.4111H137.787V58.968L127.852 74.6849H110.516Z" fill="#01010F"/>
<path d="M138.213 69.834L141.571 75.1248L138.215 80.4284L134.858 75.1248L138.213 69.834Z" fill="#01010F"/>
<path d="M99.4671 48.9797L115.184 39.045H120.741V52.8697L99.4671 66.3173V48.9797Z" fill="#01010F"/>
<path d="M98.617 66.3173L77.3432 52.8697V39.045H82.9001L98.617 48.9797V66.3173Z" fill="#01010F"/>
<path d="M93.7661 38.62L99.0568 35.2604L104.361 38.6163L99.0568 41.974L93.7661 38.62Z" fill="#01010F"/>
<path d="M98.1938 101.02L82.475 110.955H76.9182V97.1304L98.1938 83.6827V101.02Z" fill="#01010F"/>
<path d="M99.0421 83.6827L120.316 97.1304V110.955H114.759L99.0421 101.02V83.6827Z" fill="#01010F"/>
<path d="M103.893 111.38L98.6041 114.74L93.3004 111.382L98.6041 108.026L103.893 111.38Z" fill="#01010F"/>
</svg>
