<svg width="150" height="150" viewBox="0 0 150 150" fill="none" xmlns="http://www.w3.org/2000/svg">
<g clip-path="url(#clip0_15_169)">
<path fill-rule="evenodd" clip-rule="evenodd" d="M106.51 73.0802L107.966 70.7228C107.988 70.6782 108.015 70.638 108.05 70.6045C108.229 70.4259 108.521 70.4259 108.7 70.6045L111.247 73.1516C111.392 73.299 111.426 73.5334 111.312 73.7186L111.296 73.7432L109.841 76.0983C109.818 76.143 109.792 76.1832 109.756 76.2189C109.582 76.393 109.298 76.3975 109.12 76.2323L109.115 76.2278L106.555 73.6673L106.548 73.6584V73.6539L106.544 73.6494V73.645L106.539 73.6405L106.537 73.636V73.6316H106.532V73.6271L106.528 73.6249L106.526 73.6204L106.514 73.6025C106.465 73.5289 106.436 73.4396 106.436 73.3458C106.436 73.2521 106.465 73.1605 106.517 73.0846V73.0802H106.51Z" fill="#01010F"/>
<path fill-rule="evenodd" clip-rule="evenodd" d="M93.7945 46.1669H93.7387L93.7276 46.1692H93.7052L93.6941 46.1736H93.6829L93.6718 46.1803H93.6606V46.1826L93.5936 46.2093L93.5668 46.2227L93.4686 46.2964L93.395 46.3946L93.3816 46.4214L93.3548 46.4884L93.3503 46.5107V46.5219H93.3481V46.533L93.3436 46.5442V46.5665L93.3414 46.5777V46.7942H93.3436V46.8032H93.3458V46.8076H93.3481V46.8121H93.3503V46.8165H93.3525V46.821H93.3548V46.8255H93.357V46.8299H93.3592V46.8344H93.3615V46.8389H93.3637V46.8433H93.3659V46.8478H93.3682V46.8523L93.3749 46.8567L93.3793 46.8657L93.3816 46.8701V46.8746H93.3838V46.8791H93.386V46.8835H93.3883V46.888L93.395 46.8924L93.4083 46.9058L93.4128 46.9103L114.285 67.785L114.29 67.7873L114.294 67.7917C114.475 67.9569 114.754 67.9502 114.928 67.7761C114.964 67.7404 114.993 67.7002 115.015 67.6578L127.86 46.8746C127.914 46.7987 127.943 46.7072 127.943 46.6089C127.943 46.3589 127.744 46.1558 127.496 46.1491H93.7655L93.7945 46.1669Z" fill="#01010F"/>
<path fill-rule="evenodd" clip-rule="evenodd" d="M0.430844 46.1669H0.397359L0.386196 46.1692H0.363873L0.35271 46.1736H0.34155L0.330387 46.1781H0.319227L0.308064 46.1848L0.252255 46.2071L0.216537 46.225L0.127244 46.2919L0.120547 46.2986L0.053576 46.3879L0.0357168 46.4237L0.0133936 46.4795V46.4906H0.00892962V46.5018H0.00669679V46.5129H0.00446396V46.5241H0.00223113V46.5353H0V46.7049C0.00446471 46.7384 0.0156254 46.7719 0.0267871 46.8032L0.0312528 46.8143V46.8188L0.0357168 46.8299V46.8344H0.0379496V46.8389H0.0401824V46.8433H0.0424135L0.0468792 46.8523L0.05804 46.8724V46.8768H0.0602728V46.8813H0.0625056V46.8858H0.0647384V46.8902H0.0669696V46.8947H0.0692024V46.8991H0.0714352V46.9036H0.0736663V46.9081H0.0758992V46.9125H0.078132V46.917H0.082596V46.9215H0.0870616V46.9259H0.0915256V46.9304H0.0959912L0.102688 46.9393L20.973 67.8096C21.1538 67.9815 21.4373 67.977 21.6159 67.8007C21.6516 67.7649 21.6806 67.7248 21.7007 67.6824L34.5457 46.8969C34.5992 46.821 34.6305 46.7295 34.6305 46.6313C34.6305 46.3812 34.4318 46.1781 34.184 46.1714H0.430844V46.1669Z" fill="#01010F"/>
<path fill-rule="evenodd" clip-rule="evenodd" d="M98.1141 73.636L98.1365 73.6606L98.1275 73.6517L98.1141 73.636ZM98.0115 73.3302C98.0115 73.3615 98.0115 73.3949 98.0204 73.4351V73.4441V73.4374C98.0159 73.4083 98.0115 73.3793 98.0115 73.3481V73.3302ZM98.0583 73.1382C98.0472 73.165 98.0249 73.2208 98.0159 73.2744C98.0226 73.2253 98.0382 73.1806 98.0583 73.1382ZM32.1995 99.9599L34.8336 95.6984C34.8984 95.5711 35.0212 95.4774 35.1685 95.4528L84.0213 95.4595C84.1686 95.4528 84.2981 95.3792 84.3785 95.2675L92.5109 82.1078C92.54 82.0475 92.5578 81.9783 92.5578 81.9069C92.5578 81.7819 92.5087 81.6703 92.4283 81.5877L89.6022 78.7526L89.5821 78.7325C89.504 78.6611 89.399 78.6164 89.2852 78.6119H59.2511C59.0948 78.6164 58.9587 78.7012 58.8783 78.824L51.9736 89.9947C51.9245 90.0929 51.8397 90.1711 51.737 90.2135H51.7325L51.7303 90.2157L51.7192 90.2202H51.7169L51.7125 90.2224H51.7102L51.7058 90.2247H51.7035L51.6991 90.2269H39.0215C38.8831 90.2224 38.7603 90.1577 38.68 90.0595V90.055L38.6733 90.0505L38.6666 90.0416H38.6644L38.651 90.0148L38.6443 90.0059L38.6219 89.9612L38.6175 89.9501L38.6063 89.8943V89.8719L38.6041 89.8585V89.8251C38.5951 89.7603 38.6018 89.6956 38.6197 89.6308V89.5862L38.6264 89.575V89.5706L38.6286 89.5683V89.5594H38.6309V89.5505H38.6331V89.5393H38.6353V89.5215L51.6589 68.4414C51.7058 68.3476 51.7839 68.2739 51.8799 68.2293L51.9 68.2204L51.9111 68.2159H51.9134L51.9178 68.2137H51.9201L51.9245 68.2114H91.551C91.7988 68.2047 91.9997 68.0016 91.9997 67.7516C91.9997 67.631 91.9529 67.5194 91.877 67.439L79.1481 54.7102C79.0699 54.6387 78.965 54.5941 78.8489 54.5896H74.0695C73.9043 54.5963 73.7636 54.6878 73.6855 54.8218L68.7833 62.7533C68.7163 62.885 68.5891 62.9788 68.4395 63.0011H55.8289C55.6548 62.9966 55.5052 62.8962 55.4316 62.7489L55.4226 62.731L55.4204 62.7198L55.4115 62.6997L55.407 62.6774V62.6439L55.4025 62.6417V62.635L55.4003 62.6305V62.3537L55.4025 62.3493V62.3403L55.407 62.3359V62.3269L55.4159 62.3135L55.4249 62.2912L55.4293 62.2845L65.2383 46.4103C65.3097 46.2674 65.4548 46.1692 65.6222 46.158H84.1106L84.1151 46.1602H84.1195L84.1307 46.1625H84.1441L84.153 46.1669H84.1798C84.2044 46.1781 84.2267 46.1893 84.249 46.2049L84.2624 46.2138L84.2669 46.216C84.2847 46.2294 84.3048 46.2451 84.3204 46.2629L102.757 64.7022V64.7066C102.836 64.7892 102.882 64.9008 102.882 65.0214C102.882 65.1218 102.851 65.2134 102.798 65.2893L98.4244 72.3658L98.3463 72.4931L98.1811 72.7587L98.17 72.7788L98.0762 72.9306L97.9824 73.0847L97.978 73.0958V73.098C97.9557 73.1427 97.9423 73.1873 97.9356 73.2342V73.2476C97.9356 73.2588 97.9333 73.2699 97.9333 73.2811V73.3057C97.9333 73.3369 97.9356 73.3659 97.9423 73.3949V73.4128C97.9534 73.4686 97.9757 73.5244 98.0204 73.5802L98.0226 73.5847V73.5892L98.0271 73.5936V73.5981L98.1432 73.7142L98.1722 73.7432L98.1833 73.7544L98.1878 73.7611L98.2101 73.7834V73.7856L105.956 81.5341L105.979 81.5587V81.5631H105.983L105.988 81.5676V81.5721L105.997 81.581H105.999V81.5854L106.003 81.5921H106.006C106.057 81.6703 106.088 81.7596 106.088 81.8578C106.088 81.956 106.057 82.052 106.001 82.1257L92.752 103.572C92.6851 103.701 92.56 103.797 92.4105 103.82H92.4016L92.3859 103.822H30.5966C30.3488 103.815 30.1502 103.612 30.1502 103.362C30.1502 103.284 30.1702 103.21 30.2037 103.148C30.2127 103.13 30.2238 103.112 30.235 103.096L32.1995 99.9175V99.9599Z" fill="#01010F"/>
<path fill-rule="evenodd" clip-rule="evenodd" d="M149.929 46.8924C149.956 46.8523 149.978 46.8099 149.992 46.763V46.7116L149.996 46.6893V46.6848C150.019 46.513 149.94 46.3366 149.782 46.2384C149.733 46.2071 149.677 46.187 149.621 46.1781L149.588 46.1736H136.866V46.1759H136.859V46.1781H136.852L136.845 46.1826H136.839V46.1848H136.832V46.187H136.825V46.1893H136.821V46.1915H136.816V46.1937H136.812V46.1982H136.808V46.2027H136.803L136.801 46.2071H136.796L136.794 46.2116H136.792L136.79 46.216H136.787L136.785 46.2205H136.783L136.772 46.2294H136.767V46.2339H136.763V46.2384L136.752 46.2451C136.705 46.283 136.665 46.3299 136.636 46.3812L101.568 103.125C101.516 103.199 101.487 103.288 101.487 103.384C101.487 103.634 101.688 103.84 101.938 103.844H114.564V103.842C114.707 103.815 114.828 103.724 114.89 103.596L149.943 46.8746L149.929 46.8924Z" fill="#01010F"/>
<path fill-rule="evenodd" clip-rule="evenodd" d="M30.322 89.3786L56.579 46.8924C56.6125 46.8456 56.637 46.7898 56.6504 46.7317V46.6402C56.6549 46.4839 56.5768 46.3277 56.4339 46.2384C56.3825 46.2071 56.329 46.187 56.2732 46.1781H56.2531L56.2486 46.1736H43.5599L43.5554 46.1759H43.5331L43.5063 46.1848H43.4996L43.4929 46.1893L43.4795 46.1937L43.4751 46.196L43.4706 46.2004L43.4661 46.2027L43.4572 46.2116H43.455L43.4505 46.216H43.4483L43.4438 46.2205H43.4416L43.4394 46.225H43.4371L43.4349 46.2294H43.4304L43.4282 46.2339H43.4237V46.2384H43.4193V46.2428H43.4148V46.2473H43.4103V46.2518L43.4014 46.2607L43.3969 46.2652L43.388 46.2741L43.3835 46.2786L43.3791 46.283L43.3702 46.2942C43.3434 46.3232 43.3188 46.3545 43.2987 46.3902L8.22845 103.137C8.20166 103.177 8.18157 103.221 8.16818 103.268V103.445C8.16818 103.458 8.17264 103.471 8.17488 103.485V103.496C8.18157 103.527 8.1905 103.554 8.2039 103.581C8.27533 103.737 8.4316 103.849 8.61465 103.851H21.252C21.3882 103.82 21.502 103.728 21.5645 103.608L30.3622 89.3741L30.322 89.3786Z" fill="#01010F"/>
</g>
<defs>
<clipPath id="clip0_15_169">
<rect width="150" height="150" fill="white"/>
</clipPath>
</defs>
</svg>
