<svg width="432" height="432" viewBox="0 0 432 432" fill="none" xmlns="http://www.w3.org/2000/svg">
<path d="M431.336 215.684L262.933 189.593L326.567 104.784L240.78 168.009L215.682 0L189.594 168.393L104.792 104.767L168.019 190.552L0 215.652L168.402 241.742L104.779 326.555L190.552 263.325L215.65 431.336L241.741 262.923L326.554 326.571L263.335 240.781L431.336 215.684ZM217.676 241.444C203.623 241.444 192.191 230.01 192.191 215.958C192.191 201.906 203.623 190.472 217.676 190.472C231.728 190.472 243.162 201.905 243.162 215.958C243.162 230.011 231.728 241.444 217.676 241.444ZM244.919 214.758C244.728 210.372 243.495 206.253 241.463 202.639L262.486 191.332L419.299 214.758H244.919ZM317.014 113.042L235.082 194.978C233.449 193.621 231.654 192.453 229.733 191.502L241.621 169.609L317.014 113.042ZM214.756 12.0386V188.842C210.864 189.258 207.218 190.5 203.988 192.383L191.331 168.848L214.756 12.0386ZM196.966 198.241C195.754 199.656 194.681 201.193 193.776 202.836L169.619 189.713L113.057 114.328L196.966 198.241ZM190.418 216.578C190.503 220.327 191.346 223.89 192.802 227.122L168.849 240.004L12.0388 216.578H190.418ZM114.338 318.29L197.906 234.717C199.243 236.125 200.725 237.395 202.334 238.493L189.71 261.727L114.338 318.29ZM216.576 419.297V243.204C216.941 243.218 217.307 243.232 217.676 243.232C221.501 243.232 225.143 242.437 228.451 241.009L240.001 262.486L216.576 419.297ZM236.73 235.446C238.308 233.903 239.699 232.173 240.867 230.289L261.737 241.624L318.294 317.015L236.73 235.446Z" fill="#5AA9FF"/>
</svg>
